# xmcd CD database file
#
# Track frame offsets:
#	150
#	15934
#	28545
#	44930
#	73985
#	94267
#	102087
#	114180
#	128679
#	139805
#	152882
#
# Disc length: 2225 seconds
#
# Revision: 2
# Processed by: cddbd v1.5.1PL0 Copyright (c) Steve Scherf et al.
# Submitted via: CDex 1.51
#
DISCID=9108af0b
DTITLE=Tom Ball - A Source Book of Sonny Terry Licks for Blues Harmonica
DYEAR=1995
DGENRE=Blues
TTITLE0=Introduction and Explanation
TTITLE1=A Dozen Intro Licks
TTITLE2=A Dozen Slow and Easy Licks
TTITLE3=Nineteen Fast Licks
TTITLE4=Ten Shuffle-Paced Licks
TTITLE5=Five Backup Licks
TTITLE6=Seven Tricky Licks
TTITLE7=All Talk and No Action
TTITLE8=Four Verses from Tater Pie
TTITLE9=Bonus 1 Salty Holmes Talking Harmonica
TTITLE10=Bonus 2 Amplified Instrumental
EXTD=YEAR: 1995
EXTT0=
EXTT1=
EXTT2=
EXTT3=
EXTT4=
EXTT5=
EXTT6=
EXTT7=
EXTT8=
EXTT9=
EXTT10=
PLAYORDER=
